classDiagram

namespace PkgCompetences {
  class Competence 
  class Module
  class Filiere
}


class Competence {
  id : Integer
  code: String
  nom: String
  description: Text
}


class Module {
  id : int
  N : string
  nom : string
  description : string
  Masse_horaire : string
}

class Filiere {
  id : int
  nom : string
  description : string 
}

Competence "*" --> "1" Module
Module "*" --> "1" Filiere
